<svg id="Layer_1" data-name="Layer 1" xmlns="http://www.w3.org/2000/svg" viewBox="0 0 512 512"><title>puzzle-pieces</title><path d="M0,24.38A24.43,24.43,0,0,1,24.37,0h196.2a24.45,24.45,0,0,1,24.37,24.38v79c12.43.18,20.28.44,26.61-10a35.69,35.69,0,0,1,6.17-7.75c4.6-4.29,10-6.8,15.83-6.8,16.32,0,29.62,19.58,29.62,43.59,0,12-3.36,22.91-8.69,30.82s-12.76,12.81-20.93,12.81a20.7,20.7,0,0,1-8.35-1.8,25.81,25.81,0,0,1-7.48-5,35.81,35.81,0,0,1-6.17-7.76c-6.33-10.36-14.18-10.13-26.61-10v79a24.46,24.46,0,0,1-24.37,24.4H179.13c.89-1.15,1.7-2.41,2.48-3.63,8.27-14.17,8.69-28.77,1.28-43.55-11-19-30.34-28-51.52-30.57a86.52,86.52,0,0,0-42.5,6.61l-9.67,5.39a81.68,81.68,0,0,0-12.37,11.31h0c-3.38,5.45-6.94,12.54-7.91,15.77a64.11,64.11,0,0,0-2.19,11.61h0a46.16,46.16,0,0,0,4.55,19.71,48.57,48.57,0,0,0,4.5,7.34H24.37A24.44,24.44,0,0,1,0,220.53Z" fill="#fc6" fill-rule="evenodd"/><path d="M487.63,0A24.45,24.45,0,0,1,512,24.38v196.2A24.45,24.45,0,0,1,487.63,245h-79c-.19,12.43-.43,20.25,10,26.57a36.91,36.91,0,0,1,7.75,6.22c4.31,4.56,6.81,10,6.81,15.82,0,16.31-19.58,29.58-43.61,29.58-12,0-22.92-3.33-30.79-8.69s-12.81-12.74-12.81-20.89a21.14,21.14,0,0,1,1.78-8.39,26.33,26.33,0,0,1,5-7.43,36.12,36.12,0,0,1,7.73-6.18c10.42-6.36,10.15-14.18,10-26.61h-79a24.45,24.45,0,0,1-24.37-24.38V179.17c1.16.88,2.39,1.66,3.63,2.44,14.18,8.27,28.74,8.69,43.53,1.27,19-11,28-30.33,30.57-51.51a86.89,86.89,0,0,0-6.57-42.49l-5.42-9.65a81.34,81.34,0,0,0-11.32-12.39h0c-5.43-3.39-12.53-6.94-15.74-7.91a68.85,68.85,0,0,0-11.63-2.2h0a46.89,46.89,0,0,0-19.72,4.55,47.89,47.89,0,0,0-7.32,4.52V24.38A24.45,24.45,0,0,1,291.43,0Z" fill="#48cfad" fill-rule="evenodd"/><path d="M512,487.62A24.46,24.46,0,0,1,487.63,512H291.43a24.44,24.44,0,0,1-24.37-24.38v-79c-12.47-.19-20.3-.44-26.64,9.94a36.76,36.76,0,0,1-6.15,7.75c-4.62,4.31-10,6.83-15.87,6.83-16.28,0-29.58-19.6-29.58-43.63,0-12,3.31-22.88,8.7-30.78s12.73-12.81,20.88-12.81a20.54,20.54,0,0,1,8.38,1.78,25.77,25.77,0,0,1,7.44,5,36.06,36.06,0,0,1,6.2,7.76c6.33,10.4,14.17,10.11,26.64,10v-79a24.44,24.44,0,0,1,24.37-24.38h41.42c-.91,1.16-1.69,2.39-2.48,3.63-8.26,14.17-8.68,28.76-1.27,43.54,11,19,30.3,28,51.52,30.58a87.12,87.12,0,0,0,42.49-6.61l9.64-5.42a78.15,78.15,0,0,0,12.39-11.3h0c3.4-5.45,6.94-12.54,7.94-15.77a68.67,68.67,0,0,0,2.19-11.61h0a47.43,47.43,0,0,0-4.56-19.71,48.21,48.21,0,0,0-4.51-7.33h41.42A24.46,24.46,0,0,1,512,291.46Z" fill="#ed7161" fill-rule="evenodd"/><path d="M24.37,512A24.44,24.44,0,0,1,0,487.62V291.42A24.44,24.44,0,0,1,24.37,267h79c.19-12.42.45-20.26-10-26.57a37.39,37.39,0,0,1-7.72-6.18c-4.31-4.6-6.84-10-6.84-15.86,0-16.3,19.58-29.58,43.61-29.58,12,0,22.9,3.31,30.82,8.7s12.8,12.72,12.8,20.88a20.32,20.32,0,0,1-1.81,8.39,26,26,0,0,1-5,7.44,37.55,37.55,0,0,1-7.76,6.21c-10.43,6.31-10.14,14.16-10,26.57h79a24.46,24.46,0,0,1,24.37,24.4v41.41c-1.17-.88-2.39-1.68-3.65-2.44-14.18-8.29-28.77-8.69-43.54-1.28-19,11-28,30.33-30.57,51.51a86.45,86.45,0,0,0,6.61,42.49l5.42,9.66a80.53,80.53,0,0,0,11.3,12.39h0c5.45,3.36,12.53,6.94,15.74,7.92a68.9,68.9,0,0,0,11.61,2.19h0a47.11,47.11,0,0,0,19.74-4.56,50.67,50.67,0,0,0,7.34-4.51v41.41A24.46,24.46,0,0,1,220.57,512Z" fill="#656d78" fill-rule="evenodd"/></svg>